<svg xmlns="http://www.w3.org/2000/svg" width="1600" height="1000" viewBox="0 0 1600 1000">
  <defs>
    <linearGradient id="sky" x1="0" x2="0" y1="0" y2="1">
      <stop offset="0" stop-color="#4aa3df"/>
      <stop offset="1" stop-color="#b7e1ff"/>
    </linearGradient>
    <linearGradient id="leaf" x1="0" x2="1" y1="0" y2="1">
      <stop offset="0" stop-color="#5e8f35"/>
      <stop offset="1" stop-color="#1d5d2c"/>
    </linearGradient>
  </defs>
  <rect width="1600" height="1000" fill="url(#sky)"/>
  <rect y="720" width="1600" height="280" fill="#2f742e"/>
  <g transform="translate(650 430)">
    <g fill="#ffd328">
      <ellipse cx="0" cy="-230" rx="52" ry="170"/>
      <ellipse cx="0" cy="230" rx="52" ry="170"/>
      <ellipse cx="-230" cy="0" rx="170" ry="52"/>
      <ellipse cx="230" cy="0" rx="170" ry="52"/>
      <ellipse cx="-162" cy="-162" rx="52" ry="170" transform="rotate(-45 -162 -162)"/>
      <ellipse cx="162" cy="-162" rx="52" ry="170" transform="rotate(45 162 -162)"/>
      <ellipse cx="-162" cy="162" rx="52" ry="170" transform="rotate(45 -162 162)"/>
      <ellipse cx="162" cy="162" rx="52" ry="170" transform="rotate(-45 162 162)"/>
      <ellipse cx="0" cy="-230" rx="42" ry="155" transform="rotate(22)"/>
      <ellipse cx="0" cy="-230" rx="42" ry="155" transform="rotate(-22)"/>
      <ellipse cx="230" cy="0" rx="155" ry="42" transform="rotate(22)"/>
      <ellipse cx="-230" cy="0" rx="155" ry="42" transform="rotate(22)"/>
    </g>
    <circle r="150" fill="#5a3219"/>
    <circle r="72" fill="#2a2312"/>
  </g>
  <g transform="translate(1140 310) scale(.55)">
    <g fill="#ffd328">
      <ellipse cx="0" cy="-230" rx="52" ry="170"/>
      <ellipse cx="0" cy="230" rx="52" ry="170"/>
      <ellipse cx="-230" cy="0" rx="170" ry="52"/>
      <ellipse cx="230" cy="0" rx="170" ry="52"/>
      <ellipse cx="-162" cy="-162" rx="52" ry="170" transform="rotate(-45 -162 -162)"/>
      <ellipse cx="162" cy="-162" rx="52" ry="170" transform="rotate(45 162 -162)"/>
      <ellipse cx="-162" cy="162" rx="52" ry="170" transform="rotate(45 -162 162)"/>
      <ellipse cx="162" cy="162" rx="52" ry="170" transform="rotate(-45 162 162)"/>
    </g>
    <circle r="150" fill="#5a3219"/>
    <circle r="72" fill="#2a2312"/>
  </g>
  <path d="M640 555 C600 690 575 820 560 1000" fill="none" stroke="url(#leaf)" stroke-width="36"/>
  <path d="M1080 420 C1060 575 1050 780 1030 1000" fill="none" stroke="url(#leaf)" stroke-width="24"/>
</svg>
